<svg width="177" height="26" viewBox="0 0 177 26" fill="none" xmlns="http://www.w3.org/2000/svg">
<g opacity="0.5">
<path d="M23 4.83359C23 2.8193 21.1815 1 19.1667 1H3.83333C1.81853 1 0 2.8193 0 4.83359V20.1664C0 22.1807 1.81853 24 3.83359 24H11.5V15.3111H8.68889V11.4778H11.5V9.98431C11.5 7.40857 13.434 5.08889 15.8125 5.08889H18.9111V8.92222H15.8125C15.4734 8.92222 15.0778 9.33392 15.0778 9.95058V11.4778H18.9111V15.3111H15.0778V24H19.1667C21.1815 24 23 22.1807 23 20.1664V4.83359Z" fill="#F6FCFA"/>
</g>
<g opacity="0.5">
<path d="M66.6309 1H50.3691C48.5116 1 47 2.51155 47 4.36914V20.6309C47 22.4884 48.5116 24 50.3691 24H66.6309C68.4884 24 70 22.4884 70 20.6309V4.36914C70 2.51155 68.4884 1 66.6309 1ZM58.5449 18.5195C55.2009 18.5195 52.4805 15.7991 52.4805 12.4551C52.4805 9.11103 55.2009 6.39062 58.5449 6.39062C61.889 6.39062 64.6094 9.11103 64.6094 12.4551C64.6094 15.7991 61.889 18.5195 58.5449 18.5195ZM65.2832 7.73828C64.1686 7.73828 63.2617 6.83142 63.2617 5.7168C63.2617 4.60217 64.1686 3.69531 65.2832 3.69531C66.3978 3.69531 67.3047 4.60217 67.3047 5.7168C67.3047 6.83142 66.3978 7.73828 65.2832 7.73828Z" fill="#F6FCFA"/>
<path d="M65.2832 5.04297C64.9114 5.04297 64.6094 5.34496 64.6094 5.7168C64.6094 6.08863 64.9114 6.39062 65.2832 6.39062C65.655 6.39062 65.957 6.08863 65.957 5.7168C65.957 5.34496 65.655 5.04297 65.2832 5.04297Z" fill="#F6FCFA"/>
<path d="M58.5449 7.73828C55.9444 7.73828 53.8281 9.85452 53.8281 12.4551C53.8281 15.0556 55.9444 17.1719 58.5449 17.1719C61.1455 17.1719 63.2617 15.0556 63.2617 12.4551C63.2617 9.85452 61.1455 7.73828 58.5449 7.73828Z" fill="#F6FCFA"/>
</g>
<g opacity="0.5" clip-path="url(#clip0)">
<path d="M94.4594 12.5359L100.45 14.7719L102.769 22.2293C102.918 22.7069 103.502 22.8835 103.889 22.5665L107.229 19.8442C107.579 19.559 108.077 19.5447 108.443 19.8103L114.466 24.1832C114.881 24.4846 115.468 24.2574 115.572 23.7563L119.985 2.53242C120.098 1.98503 119.56 1.52838 119.039 1.72997L94.4523 11.2149C93.8456 11.4489 93.8509 12.3079 94.4594 12.5359ZM102.395 13.5816L114.104 6.37036C114.314 6.24114 114.531 6.52567 114.35 6.69328L104.687 15.6754C104.348 15.9916 104.128 16.4147 104.066 16.8739L103.737 19.3133C103.694 19.6389 103.236 19.6713 103.146 19.3561L101.88 14.9079C101.735 14.4006 101.947 13.8586 102.395 13.5816Z" fill="#F6FCFA"/>
</g>
<g opacity="0.5">
<path d="M175.714 2.99363C174.523 1.57761 172.323 1 168.123 1H152.877C148.58 1 146.344 1.61486 145.157 3.12243C144 4.59232 144 6.75807 144 9.75554V15.4687C144 21.2757 145.373 24.2241 152.877 24.2241H168.123C171.766 24.2241 173.784 23.7144 175.09 22.4648C176.429 21.1833 177 19.091 177 15.4687V9.75554C177 6.59446 176.91 4.41593 175.714 2.99363ZM165.186 13.4009L158.263 17.0193C158.108 17.1002 157.939 17.1403 157.77 17.1403C157.578 17.1403 157.387 17.0888 157.218 16.9864C156.9 16.7934 156.705 16.4481 156.705 16.0758V8.8622C156.705 8.49047 156.899 8.14556 157.217 7.95246C157.535 7.75936 157.93 7.74616 158.26 7.91754L165.184 11.5126C165.536 11.6955 165.757 12.0592 165.758 12.4559C165.758 12.853 165.538 13.2171 165.186 13.4009Z" fill="#F6FCFA"/>
</g>
<defs>
<clipPath id="clip0">
<rect width="26" height="26" fill="white" transform="translate(94)"/>
</clipPath>
</defs>
</svg>
